<svg width="218" height="144" xmlns="http://www.w3.org/2000/svg" xmlns:xlink="http://www.w3.org/1999/xlink" xml:space="preserve" overflow="hidden"><g transform="translate(-259 -248)"><path d="M165.871 56.4552C161.289 54.4702 156.364 53.3986 151.371 53.301 149.429 53.2413 147.491 53.4936 145.629 54.0481L120.556 115.229C122.398 114.686 124.314 114.44 126.233 114.5 131.246 114.6 136.191 115.676 140.792 117.67 155.018 123.499 165.233 137.767 184.126 137.767 185.547 137.768 186.967 137.692 188.379 137.54L213.458 76.3182C187.893 75.1464 181.128 62.7068 165.871 56.4552ZM158.902 120.477C158.486 120.191 158.061 119.905 157.644 119.618L163.85 104.47 162.11 103.359C158.265 100.788 154.253 98.4754 150.102 96.4355L143.887 111.605C143.712 111.532 143.551 111.439 143.376 111.378 139.384 109.703 135.188 108.566 130.898 107.994L137.215 92.5796C140.889 93.0211 144.482 93.9789 147.888 95.425 148.653 95.7383 149.373 96.1062 150.104 96.4468L156.61 80.5714C155.882 80.2354 155.137 79.9106 154.374 79.5972 150.974 78.1916 147.44 77.1377 143.825 76.4521L150.509 60.143C150.779 60.143 151.072 60.1249 151.383 60.1249 155.488 60.2268 159.535 61.1245 163.298 62.7681 163.475 62.8408 163.634 62.9316 163.809 62.9952L156.61 80.5624C161.403 82.8454 166.024 85.4728 170.437 88.424L177.531 71.1134C181.901 74.1216 186.574 76.6622 191.474 78.6935L184.258 96.3038C179.638 94.1042 175.182 91.5788 170.921 88.7464L170.419 88.424 163.861 104.472C168.288 107.394 172.926 109.984 177.736 112.22L171.264 127.984C166.934 125.843 162.798 123.331 158.902 120.477ZM179.943 113.147C179.187 112.835 178.497 112.499 177.774 112.172L184.271 96.3764C188.113 98.1166 192.128 99.4455 196.25 100.341L189.694 116.344C186.373 115.506 183.115 114.438 179.943 113.147Z" fill="#A6A6A6" transform="matrix(1 0 0 1.01203 259 206.955)"/><path d="M97.8252 115.229 72.7552 54.0458C70.8931 53.4913 68.9543 53.239 67.0123 53.2987 62.0201 53.3964 57.0949 54.468 52.513 56.4529 37.253 62.7045 30.4859 75.1441 4.92544 76.3159L30.0113 137.533C31.4231 137.685 32.8424 137.761 34.2623 137.76 53.1557 137.76 63.3721 123.492 77.5989 117.663 82.1985 115.666 87.1437 114.586 92.1572 114.484 94.074 114.43 95.9872 114.682 97.8252 115.229ZM28.6897 116.344 22.1315 100.341C26.2592 99.4436 30.2804 98.1123 34.1284 96.3696L40.5548 112.197C39.8509 112.515 39.1787 112.845 38.4407 113.147 35.2683 114.437 32.0101 115.505 28.6897 116.344ZM75.0147 111.366C74.8399 111.439 74.6786 111.532 74.506 111.593L68.2885 96.4241C64.1342 98.4642 60.1199 100.777 56.2712 103.348L54.5318 104.458 60.7402 119.607C60.3224 119.893 59.8955 120.179 59.4799 120.465 55.5839 123.321 51.4475 125.833 47.1175 127.973L40.6706 112.252C45.4723 110.001 50.1023 107.4 54.5227 104.47L47.9373 88.4217 47.4354 88.7442C43.1847 91.5838 38.7361 94.1154 34.1238 96.3197L26.9003 78.6912C31.801 76.6604 36.4743 74.1198 40.8432 71.1111L47.9373 88.4217C52.3507 85.471 56.9718 82.8436 61.7644 80.5601L54.5658 62.9929C54.7407 62.9202 54.9019 62.8294 55.0768 62.7658 58.8409 61.122 62.888 60.2243 66.9941 60.1226 67.3052 60.1226 67.5959 60.1226 67.8684 60.1407L74.5515 76.4499C70.9372 77.135 67.4026 78.1889 64.0034 79.595 63.2375 79.9083 62.4911 80.2331 61.7644 80.5692L68.2703 96.4446C69.0038 96.0971 69.7237 95.7361 70.4889 95.4227 73.8947 93.9764 77.4879 93.0183 81.1619 92.5773L87.4793 107.992C83.1936 108.561 79.0023 109.696 75.0147 111.366Z" fill="#A6A6A6" transform="matrix(1 0 0 1.01203 259 206.955)"/><path d="M114.1 112.461 139.143 51.3504C140.031 49.0044 138.849 46.3829 136.503 45.4952 134.246 44.6414 131.716 45.7007 130.741 47.9078L109.191 100.484 87.6542 47.9146C86.7665 45.5686 84.145 44.3866 81.799 45.2743 79.453 46.1622 78.2711 48.7834 79.1587 51.1294 79.1878 51.2062 79.2189 51.2822 79.2521 51.3572L104.283 112.461 81.2822 168.589C80.2767 170.887 81.3247 173.565 83.6225 174.57 85.9206 175.576 88.5984 174.528 89.6039 172.23 89.6323 172.165 89.6591 172.1 89.6843 172.034L109.191 124.442 128.697 172.038C129.703 174.336 132.38 175.384 134.679 174.379 136.901 173.406 137.967 170.859 137.099 168.593Z" fill="#A6A6A6" transform="matrix(1 0 0 1.01203 259 206.955)"/></g></svg>