<svg width="144" height="145" xmlns="http://www.w3.org/2000/svg" xmlns:xlink="http://www.w3.org/1999/xlink" xml:space="preserve" overflow="hidden"><g transform="translate(-67 -252)"><path d="M51 36 60 36 60 58.5 51 58.5Z" fill="#A6A6A6" transform="matrix(1 0 0 1.00694 67 252)"/><path d="M99 64.5 45 64.5 45 30 99 30 99 64.5ZM72 103.5C63.75 103.5 57 96.75 57 88.5 57 80.25 63.75 73.5 72 73.5 80.25 73.5 87 80.25 87 88.5 87 96.75 80.25 103.5 72 103.5ZM117 21 99 21 45 21 36 21 21 36 21 117C21 120.3 23.7 123 27 123L117 123C120.3 123 123 120.3 123 117L123 27C123 23.7 120.3 21 117 21Z" fill="#A6A6A6" transform="matrix(1 0 0 1.00694 67 252)"/><path d="M67.5 84 76.5 84 76.5 93 67.5 93Z" fill="#A6A6A6" transform="matrix(1 0 0 1.00694 67 252)"/></g></svg>