<svg width="144" height="144" xmlns="http://www.w3.org/2000/svg" xmlns:xlink="http://www.w3.org/1999/xlink" xml:space="preserve" overflow="hidden"><g transform="translate(-868 -247)"><path d="M935.5 277C938.399 277 940.75 274.65 940.75 271.75 940.75 268.85 938.399 266.5 935.5 266.5L935.35 266.5C932.496 266.551 930.218 268.896 930.25 271.75 930.255 274.647 932.603 276.995 935.5 277ZM935.401 269.5 935.5 269.5C936.743 269.5 937.75 270.507 937.75 271.75 937.75 272.993 936.742 274 935.5 274 934.257 274 933.25 272.993 933.25 271.75 933.25 271.743 933.25 271.736 933.25 271.729 933.231 270.52 934.192 269.524 935.401 269.5Z" stroke="#A6A6A6" stroke-width="4" fill="#4EA72E"/><path d="M935.5 325.723 935.5 325 902.5 325 902.5 328 933.227 328 935.5 325.723Z" stroke="#A6A6A6" stroke-width="4" fill="#4EA72E"/><path d="M902.5 346 926.766 346 927.761 343 902.5 343 902.5 346Z" stroke="#A6A6A6" stroke-width="4" fill="#4EA72E"/><path d="M954.185 307 902.5 307 902.5 310 951.192 310 954.185 307Z" stroke="#A6A6A6" stroke-width="4" fill="#4EA72E"/><path d="M992.862 279.534C991.538 278.176 989.364 278.148 988.006 279.472 988.004 279.474 988.002 279.476 988 279.478L987.945 279.534 936.436 331.15 931 347.53 947.455 342.1 998.893 290.473C1000.25 289.284 1000.38 287.223 999.193 285.868ZM936.153 341.531 938.8 333.55C940.678 331.933 943.511 332.145 945.127 334.023 946.504 335.622 946.581 337.965 945.31 339.651L937.006 342.391ZM947.028 331.65C945.764 330.395 944.092 329.636 942.316 329.51L982.066 289.678 988.77 296.383 949.15 336.152C948.98 334.452 948.231 332.862 947.028 331.65ZM996.91 288.221 996.836 288.286 996.768 288.357 990.888 294.258 984.184 287.556 990.1 281.623C990.18 281.544 990.288 281.5 990.4 281.5 990.527 281.501 990.648 281.555 990.733 281.65L996.953 287.88C997.026 287.989 997.007 288.134 996.91 288.221Z" stroke="#A6A6A6" stroke-width="4" fill="#4EA72E"/><path d="M980.5 315.311 977.5 318.322 977.5 373C977.5 374.657 976.157 376 974.5 376L896.5 376C894.843 376 893.5 374.657 893.5 373L893.5 275.469C893.5 273.812 894.843 272.469 896.5 272.469L913 272.469 913 287.5 958 287.5 958 272.469 974.5 272.469C976.157 272.469 977.5 273.812 977.5 275.469L977.5 283.642 980.5 280.642 980.5 275.469C980.5 272.155 977.814 269.469 974.5 269.469L952 269.469 952 266.469C951.994 262.329 948.64 258.974 944.5 258.969L926.5 258.969C922.36 258.973 919.005 262.328 919 266.469L919 269.469 896.5 269.469C893.188 269.473 890.504 272.156 890.5 275.469L890.5 373C890.5 376.314 893.186 379 896.5 379L974.5 379C977.814 379 980.5 376.314 980.5 373ZM916 272.469 922 272.469 922 266.469C922 263.983 924.015 261.969 926.5 261.969L944.5 261.969C946.985 261.969 949 263.983 949 266.469L949 272.469 955 272.469 955 284.5 916 284.5Z" stroke="#A6A6A6" stroke-width="4" fill="#4EA72E"/></g></svg>