<svg width="496" height="496" xmlns="http://www.w3.org/2000/svg" xmlns:xlink="http://www.w3.org/1999/xlink" xml:space="preserve" overflow="hidden"><g transform="translate(-1868 -1855)"><path d="M2277.2 2160.87C2277.2 2118.5 2244.13 2084.4 2202.28 2082.33L2202.28 2051.33 1954.28 2051.33 1954.28 2289C1954.28 2300.37 1963.58 2309.67 1974.95 2309.67L2181.62 2309.67C2192.98 2309.67 2202.28 2300.37 2202.28 2289L2202.28 2239.92C2244.13 2237.85 2277.2 2203.23 2277.2 2160.87ZM2202.8 2208.92 2202.8 2113.33C2227.6 2115.4 2246.72 2136.07 2246.72 2160.87 2246.72 2185.67 2227.08 2206.85 2202.8 2208.92Z" fill="#4EA72E"/><path d="M2068.98 1950.58C2072.08 1953.68 2073.63 1957.3 2073.63 1961.43 2073.63 1965.57 2072.08 1969.7 2068.98 1972.28 2064.85 1976.42 2064.85 1982.62 2068.98 1986.75 2071.05 1988.82 2073.63 1989.85 2076.22 1989.85 2078.8 1989.85 2081.38 1988.82 2083.45 1986.75 2090.17 1980.03 2094.3 1970.73 2094.3 1960.92 2094.3 1951.1 2090.68 1942.32 2083.45 1935.6 2083.45 1935.6 2083.45 1935.6 2083.45 1935.6 2077.25 1929.4 2077.25 1919.58 2083.45 1913.9 2087.58 1909.77 2087.58 1903.57 2083.45 1899.43 2079.32 1895.3 2073.12 1895.3 2068.98 1899.43 2054.52 1913.38 2054.52 1936.63 2068.98 1950.58 2068.98 1950.58 2068.98 1950.58 2068.98 1950.58Z" fill="#4EA72E"/><path d="M2125.3 1980.55C2131.5 1986.75 2131.5 1996.57 2125.3 2002.25 2121.17 2006.38 2121.17 2012.58 2125.3 2016.72 2127.37 2018.78 2129.95 2019.82 2132.53 2019.82 2135.12 2019.82 2137.7 2018.78 2139.77 2016.72 2153.72 2002.77 2153.72 1979.52 2139.77 1965.57 2139.77 1965.57 2139.77 1965.57 2139.77 1965.57 2136.67 1962.47 2135.12 1958.85 2135.12 1954.72 2135.12 1950.58 2136.67 1946.45 2139.77 1943.87 2143.9 1939.73 2143.9 1933.53 2139.77 1929.4 2135.63 1925.27 2129.43 1925.27 2125.3 1929.4 2118.58 1936.12 2114.45 1945.42 2114.45 1955.23 2114.97 1965.05 2118.58 1973.83 2125.3 1980.55 2125.3 1980.55 2125.3 1980.55 2125.3 1980.55Z" fill="#4EA72E"/><path d="M2017.32 1980.55C2020.42 1983.65 2021.97 1987.27 2021.97 1991.4 2021.97 1995.53 2020.42 1999.67 2017.32 2002.25 2013.18 2006.38 2013.18 2012.58 2017.32 2016.72 2019.38 2018.78 2021.97 2019.82 2024.55 2019.82 2027.13 2019.82 2029.72 2018.78 2031.78 2016.72 2038.5 2010 2042.63 2000.7 2042.63 1990.88 2042.63 1981.07 2039.02 1972.28 2031.78 1965.05L2031.78 1965.05C2025.58 1958.85 2025.58 1949.03 2031.78 1943.35 2035.92 1939.22 2035.92 1933.02 2031.78 1928.88 2027.65 1924.75 2021.45 1924.75 2017.32 1928.88 2002.85 1943.87 2002.85 1966.6 2017.32 1980.55 2017.32 1980.55 2017.32 1980.55 2017.32 1980.55Z" fill="#4EA72E"/><path d="M1926.5 1940.5 2274.48 2315.97" stroke="#FF0000" stroke-width="20.625" stroke-miterlimit="8" fill="none" fill-rule="evenodd"/><path d="M0 0 314.171 375.469" stroke="#FF0000" stroke-width="20.625" stroke-miterlimit="8" fill="none" fill-rule="evenodd" transform="matrix(-1 0 0 1 2224.67 1940.5)"/></g></svg>