<svg width="145" height="144" xmlns="http://www.w3.org/2000/svg" xmlns:xlink="http://www.w3.org/1999/xlink" xml:space="preserve" overflow="hidden"><g transform="translate(-714 -247)"><path d="M118.8 88.8C118.8 76.5 109.2 66.6 97.05 66L97.05 57 25.05 57 25.05 126C25.05 129.3 27.75 132 31.05 132L91.05 132C94.35 132 97.05 129.3 97.05 126L97.05 111.75C109.2 111.15 118.8 101.1 118.8 88.8ZM97.2 102.75 97.2 75C104.4 75.6 109.95 81.6 109.95 88.8 109.95 96 104.25 102.15 97.2 102.75Z" fill="#4EA72E" transform="matrix(1.00694 0 0 1 714 247)"/><path d="M58.35 27.75C59.25 28.65 59.7 29.7 59.7 30.9 59.7 32.1 59.25 33.3 58.35 34.05 57.15 35.25 57.15 37.05 58.35 38.25 58.95 38.85 59.7 39.15 60.45 39.15 61.2 39.15 61.95 38.85 62.55 38.25 64.5 36.3 65.7 33.6 65.7 30.75 65.7 27.9 64.65 25.35 62.55 23.4 62.55 23.4 62.55 23.4 62.55 23.4 60.75 21.6 60.75 18.75 62.55 17.1 63.75 15.9 63.75 14.1 62.55 12.9 61.35 11.7 59.55 11.7 58.35 12.9 54.15 16.95 54.15 23.7 58.35 27.75 58.35 27.75 58.35 27.75 58.35 27.75Z" fill="#4EA72E" transform="matrix(1.00694 0 0 1 714 247)"/><path d="M74.7 36.45C76.5 38.25 76.5 41.1 74.7 42.75 73.5 43.95 73.5 45.75 74.7 46.95 75.3 47.55 76.05 47.85 76.8 47.85 77.55 47.85 78.3 47.55 78.9 46.95 82.95 42.9 82.95 36.15 78.9 32.1 78.9 32.1 78.9 32.1 78.9 32.1 78 31.2 77.55 30.15 77.55 28.95 77.55 27.75 78 26.55 78.9 25.8 80.1 24.6 80.1 22.8 78.9 21.6 77.7 20.4 75.9 20.4 74.7 21.6 72.75 23.55 71.55 26.25 71.55 29.1 71.7 31.95 72.75 34.5 74.7 36.45 74.7 36.45 74.7 36.45 74.7 36.45Z" fill="#4EA72E" transform="matrix(1.00694 0 0 1 714 247)"/><path d="M43.35 36.45C44.25 37.35 44.7 38.4 44.7 39.6 44.7 40.8 44.25 42 43.35 42.75 42.15 43.95 42.15 45.75 43.35 46.95 43.95 47.55 44.7 47.85 45.45 47.85 46.2 47.85 46.95 47.55 47.55 46.95 49.5 45 50.7 42.3 50.7 39.45 50.7 36.6 49.65 34.05 47.55 31.95L47.55 31.95C45.75 30.15 45.75 27.3 47.55 25.65 48.75 24.45 48.75 22.65 47.55 21.45 46.35 20.25 44.55 20.25 43.35 21.45 39.15 25.8 39.15 32.4 43.35 36.45 43.35 36.45 43.35 36.45 43.35 36.45Z" fill="#4EA72E" transform="matrix(1.00694 0 0 1 714 247)"/></g></svg>