<svg width="168" height="169" xmlns="http://www.w3.org/2000/svg" xmlns:xlink="http://www.w3.org/1999/xlink" xml:space="preserve" overflow="hidden"><g transform="translate(-272 -430)"><path d="M84 127.75C66.5 127.75 52.5 113.75 52.5 96.25 52.5 78.75 66.5 64.75 84 64.75 101.5 64.75 115.5 78.75 115.5 96.25 115.5 113.75 101.5 127.75 84 127.75ZM49 71.75 28 71.75 28 57.75 49 57.75 49 71.75ZM147 43.75 112 43.75 101.5 26.25 66.5 26.25 56 43.75 21 43.75C17.15 43.75 14 46.9 14 50.75L14 134.75C14 138.6 17.15 141.75 21 141.75L147 141.75C150.85 141.75 154 138.6 154 134.75L154 50.75C154 46.9 150.85 43.75 147 43.75Z" fill="#4EA72E" transform="matrix(1 0 0 1.00595 272 430)"/><path d="M84 78.75C74.2 78.75 66.5 86.45 66.5 96.25 66.5 106.05 74.2 113.75 84 113.75 93.8 113.75 101.5 106.05 101.5 96.25 101.5 86.45 93.8 78.75 84 78.75ZM84 120.75C70.35 120.75 59.5 109.9 59.5 96.25 59.5 82.6 70.35 71.75 84 71.75 97.65 71.75 108.5 82.6 108.5 96.25 108.5 109.9 97.65 120.75 84 120.75Z" fill="#4EA72E" transform="matrix(1 0 0 1.00595 272 430)"/></g></svg>