<svg width="120" height="119" xmlns="http://www.w3.org/2000/svg" xmlns:xlink="http://www.w3.org/1999/xlink" xml:space="preserve" overflow="hidden"><g transform="translate(-520 -406)"><path d="M48.5917 36.1958C49.5833 35.2042 50.2031 33.8406 50.2031 32.3531 50.2031 30.8656 49.5833 29.5021 48.5917 28.5104L31.4854 11.5281C30.4938 10.5365 29.1302 9.91667 27.7667 9.91667 26.4031 9.91667 24.9156 10.5365 23.924 11.5281L22.0646 13.3875 46.7323 38.0552 48.5917 36.1958Z" fill="#A6A6A6" transform="matrix(1.0084 0 0 1 520 406)"/><path d="M73.5073 79.9531C73.0115 80.449 72.2677 80.6969 71.6479 80.6969 71.0281 80.6969 70.2844 80.449 69.7885 79.9531L39.0469 49.3354C38.551 48.8396 38.3031 48.0958 38.3031 47.476 38.3031 46.8563 38.551 46.1125 39.0469 45.6167L42.8896 41.8979 18.2219 17.2302C16.6104 18.8417 15.1229 20.3292 14.1313 21.3208 11.6521 23.676 10.1646 26.775 10.0406 30.1219 9.66875 35.7 11.0323 41.0302 12.8917 46.2365 14.875 50.8229 17.4781 55.1615 20.3292 59.2521 30.4938 74.499 43.2615 87.7625 58.1365 98.299 60.6156 100.158 63.2188 101.77 65.9458 103.257 72.1438 106.356 78.7135 108.588 85.7792 109.083 90.4896 109.455 95.2 107.596 98.4229 104.125L101.77 100.778 77.226 76.1104 73.5073 79.9531Z" fill="#A6A6A6" transform="matrix(1.0084 0 0 1 520 406)"/><path d="M107.472 87.5146 90.3656 70.4083C89.374 69.4167 88.0104 68.7969 86.5229 68.7969 85.0354 68.7969 83.6719 69.4167 82.6802 70.4083L80.8208 72.3917 105.489 97.0594 107.348 95.2C108.34 94.2083 108.959 92.8448 108.959 91.3573 108.959 89.8698 108.464 88.5063 107.472 87.5146Z" fill="#A6A6A6" transform="matrix(1.0084 0 0 1 520 406)"/></g></svg>