<svg width="199" height="199" xmlns="http://www.w3.org/2000/svg" xmlns:xlink="http://www.w3.org/1999/xlink" xml:space="preserve" overflow="hidden"><g transform="translate(-755 -447)"><path d="M917.724 483.276 915.651 464.62 892.849 487.422 894.093 498.201 860.926 531.368C858.024 529.917 854.707 528.88 851.183 528.88 839.782 528.88 830.454 538.208 830.454 549.609 830.454 561.01 839.782 570.339 851.183 570.339 862.584 570.339 871.912 561.01 871.912 549.609 871.912 546.085 871.083 542.976 869.632 540.074L902.799 506.907 913.578 508.151 936.38 485.349 917.724 483.276Z" fill="#4EA72E"/><path d="M919.382 513.955 916.688 516.857 912.749 516.443 908.396 515.821C914.2 525.771 917.724 537.172 917.724 549.609 917.724 586.093 887.874 615.943 851.391 615.943 814.907 615.943 785.057 586.093 785.057 549.609 785.057 513.126 814.907 483.276 851.391 483.276 863.621 483.276 875.229 486.593 885.179 492.604L884.765 488.458 884.143 484.312 887.045 481.41 888.496 479.959C877.302 474.155 864.865 470.839 851.391 470.839 807.859 470.839 772.62 506.078 772.62 549.609 772.62 593.141 807.859 628.38 851.391 628.38 894.922 628.38 930.161 593.141 930.161 549.609 930.161 536.135 926.845 523.698 920.833 512.711L919.382 513.955Z" fill="#4EA72E"/><path d="M886.008 535.514C887.874 539.867 888.703 544.634 888.703 549.609 888.703 570.131 871.912 586.922 851.391 586.922 830.869 586.922 814.078 570.131 814.078 549.609 814.078 529.088 830.869 512.297 851.391 512.297 856.366 512.297 861.133 513.333 865.486 514.992L874.815 505.664C867.767 501.932 859.89 499.859 851.391 499.859 824.028 499.859 801.641 522.247 801.641 549.609 801.641 576.972 824.028 599.359 851.391 599.359 878.753 599.359 901.141 576.972 901.141 549.609 901.141 541.11 899.068 533.233 895.336 526.185L886.008 535.514Z" fill="#4EA72E"/></g></svg>